HIERARCHY
ROOT joint_Root
{
	OFFSET 0.0 0.0 0.0
	CHANNELS 6 Xposition Yposition Zposition Zrotation Xrotation Yrotation 
	JOINT Hips
	{
		OFFSET -0.726466 93.3139 -2.00062
		CHANNELS 6 Xposition Yposition Zposition Zrotation Xrotation Yrotation 
		JOINT Spine
		{
			OFFSET 15.7357 0.0 0.0
			CHANNELS 6 Xposition Yposition Zposition Zrotation Xrotation Yrotation 
			JOINT Chest
			{
				OFFSET 8.98455 -0.406207 0.0
				CHANNELS 6 Xposition Yposition Zposition Zrotation Xrotation Yrotation 
				JOINT Neck
				{
					OFFSET 16.3773 0.0 0.0
					CHANNELS 6 Xposition Yposition Zposition Zrotation Xrotation Yrotation 
					JOINT Head
					{
						OFFSET 6.45672 0.0 0.0
						CHANNELS 6 Xposition Yposition Zposition Zrotation Xrotation Yrotation 
						End Site
						{
							OFFSET 0.0 0.0 0.0
						}
					}
				}
				JOINT Shoulder_L
				{
					OFFSET 12.9942 -0.242716 4.98039
					CHANNELS 6 Xposition Yposition Zposition Zrotation Xrotation Yrotation 
					JOINT UpperArm_L
					{
						OFFSET 5.34809 0.0 0.0
						CHANNELS 6 Xposition Yposition Zposition Zrotation Xrotation Yrotation 
						JOINT LowerArm_L
						{
							OFFSET 24.3286 1.87007e-05 0.0
							CHANNELS 6 Xposition Yposition Zposition Zrotation Xrotation Yrotation 
							JOINT Hand_L
							{
								OFFSET 22.2916 0.0 0.0
								CHANNELS 6 Xposition Yposition Zposition Zrotation Xrotation Yrotation 
								End Site
								{
									OFFSET 0.0 0.0 0.0
								}
							}
						}
					}
				}
				JOINT Shoulder_R
				{
					OFFSET 12.9945 -0.242716 -4.98039
					CHANNELS 6 Xposition Yposition Zposition Zrotation Xrotation Yrotation 
					JOINT UpperArm_R
					{
						OFFSET -5.34813 0.0 0.0
						CHANNELS 6 Xposition Yposition Zposition Zrotation Xrotation Yrotation 
						JOINT LowerArm_R
						{
							OFFSET -24.3289 0.000322201 0.0
							CHANNELS 6 Xposition Yposition Zposition Zrotation Xrotation Yrotation 
							JOINT Hand_R
							{
								OFFSET -22.2915 -0.000108084 0.0
								CHANNELS 6 Xposition Yposition Zposition Zrotation Xrotation Yrotation 
								End Site
								{
									OFFSET 0.0 0.0 0.0
								}
							}
						}
					}
				}
			}
		}
		JOINT UpperLeg_L
		{
			OFFSET -2.19248 -6.46944 0.0
			CHANNELS 6 Xposition Yposition Zposition Zrotation Xrotation Yrotation 
			JOINT LowerLeg_L
			{
				OFFSET 39.0811 0.0 -1.23785e-05
				CHANNELS 6 Xposition Yposition Zposition Zrotation Xrotation Yrotation 
				JOINT Foot_L
				{
					OFFSET 40.9854 0.0 -1.26872e-05
					CHANNELS 6 Xposition Yposition Zposition Zrotation Xrotation Yrotation 
					JOINT Toes_L
					{
						OFFSET 11.7543 0.0 0.0
						CHANNELS 6 Xposition Yposition Zposition Zrotation Xrotation Yrotation 
						End Site
						{
							OFFSET 0.0 0.0 0.0
						}
					}
				}
			}
		}
		JOINT UpperLeg_R
		{
			OFFSET -2.19251 6.46944 0.0
			CHANNELS 6 Xposition Yposition Zposition Zrotation Xrotation Yrotation 
			JOINT LowerLeg_R
			{
				OFFSET -39.0811 -0.00228153 -0.0401928
				CHANNELS 6 Xposition Yposition Zposition Zrotation Xrotation Yrotation 
				JOINT Foot_R
				{
					OFFSET -40.9854 0.0 0.0
					CHANNELS 6 Xposition Yposition Zposition Zrotation Xrotation Yrotation 
					JOINT Toes_R
					{
						OFFSET -11.7543 0.0 0.0
						CHANNELS 6 Xposition Yposition Zposition Zrotation Xrotation Yrotation 
						End Site
						{
							OFFSET 0.0 0.0 0.0
						}
					}
				}
			}
		}
	}
}
MOTION
Frames:	7
Frame Time:	0.0333333
0.000000 0.000000 0.000000 0.000000 0.000000 -0.000000 -0.977900 91.918300 -1.339980 87.566200 -0.605115 3.951900 15.735700 0.000005 -0.000001 85.417500 85.164500 -85.350900 8.984550 -0.406207 -0.000000 1.874610 -0.775604 0.145672 16.377300 -0.000001 -0.000001 2.347390 -2.414100 -0.743521 6.456720 -0.000001 -0.000000 -0.519997 -1.314570 3.595680 12.994200 -0.242716 4.980390 -89.649600 -1.093500 -72.229100 5.348090 -0.000007 -0.000001 -50.171000 58.278400 -25.074300 24.328600 0.000019 0.000005 4.142220 6.241250 -33.667800 22.291600 -0.000001 0.000005 12.172200 5.648570 -14.869400 12.994500 -0.242716 -4.980390 87.687600 6.476750 -70.303300 -5.348130 -0.000001 -0.000004 -65.254900 36.245000 -14.743200 -24.328900 0.000322 -0.000009 0.620028 1.796840 -19.071700 -22.291500 -0.000108 -0.000004 4.979470 5.525770 -7.609970 -2.192480 -6.469440 -0.000000 -167.892000 -16.129100 -2.478670 39.081100 -0.000007 -0.000012 -0.206600 0.507265 22.160500 40.985400 -0.000006 -0.000013 -6.719680 2.836280 -63.528800 11.754300 -0.000000 0.000003 -0.000187 -0.001748 -16.643600 -2.192510 6.469440 -0.000001 173.857000 20.460300 179.923000 -39.081100 -0.002282 -0.040193 -0.055946 0.165677 19.683800 -40.985400 0.000008 0.000006 -4.111240 3.282200 -63.338700 -11.754300 -0.000006 -0.000006 -0.004699 -0.058521 -18.954000
0.000000 0.000000 0.000000 0.000000 0.000000 -0.000000 -1.007010 91.924800 -1.369310 87.558900 -0.504935 3.973450 15.735700 0.000005 -0.000001 85.229700 85.116900 -85.212700 8.984550 -0.406207 -0.000000 1.966690 -0.812512 0.047979 16.377300 -0.000001 -0.000001 2.308290 -2.475220 -0.793669 6.456720 -0.000001 -0.000000 -0.707978 -1.551250 3.513680 12.994200 -0.242716 4.980390 -89.599200 -1.243380 -72.129800 5.348090 -0.000007 -0.000001 -44.819200 60.641400 -28.150700 24.328600 0.000019 0.000005 4.424090 5.783720 -37.515800 22.291600 -0.000001 0.000005 12.855200 5.659410 -15.976600 12.994500 -0.242716 -4.980390 87.717600 6.355550 -70.198500 -5.348130 -0.000001 -0.000004 -65.153500 35.427700 -14.905100 -24.328900 0.000322 -0.000009 0.535921 1.534300 -19.291800 -22.291500 -0.000108 -0.000004 5.216760 5.528140 -7.713590 -2.192480 -6.469440 -0.000000 -167.875000 -16.083500 -2.482400 39.081100 -0.000007 -0.000012 -0.204951 0.504242 22.119800 40.985400 -0.000006 -0.000013 -6.719210 2.888420 -63.472700 11.754300 -0.000000 0.000003 -0.000184 -0.001722 -16.642700 -2.192510 6.469440 -0.000001 173.880000 20.568800 179.938000 -39.081100 -0.002282 -0.040193 -0.054193 0.160664 19.696400 -40.985400 0.000008 0.000006 -3.975640 3.268770 -63.351000 -11.754300 -0.000006 -0.000006 -0.004735 -0.058878 -18.968500
0.000000 0.000000 0.000000 0.000000 0.000000 -0.000000 -1.044380 91.929100 -1.408220 87.544600 -0.430871 4.016510 15.735700 0.000005 -0.000001 85.014600 85.073900 -85.040500 8.984550 -0.406207 -0.000000 2.048870 -0.854305 -0.036453 16.377300 -0.000001 -0.000001 2.299500 -2.513280 -0.884826 6.456720 -0.000001 -0.000000 -0.880431 -1.690830 3.317720 12.994200 -0.242716 4.980390 -89.547100 -1.391480 -71.970500 5.348090 -0.000007 -0.000001 -39.563200 62.274100 -30.814600 24.328600 0.000019 0.000005 4.823490 5.368580 -42.049700 22.291600 -0.000001 0.000005 13.304400 5.668140 -17.083500 12.994500 -0.242716 -4.980390 87.769100 6.155710 -70.034000 -5.348130 -0.000001 -0.000004 -64.952500 34.235200 -15.160000 -24.328900 0.000322 -0.000009 0.353727 1.003310 -19.475900 -22.291500 -0.000108 -0.000004 5.412110 5.531860 -7.876600 -2.192480 -6.469440 -0.000000 -167.836000 -16.055100 -2.480330 39.081100 -0.000007 -0.000012 -0.203869 0.502135 22.097700 40.985400 -0.000006 -0.000013 -6.726200 2.934970 -63.412000 11.754300 -0.000000 0.000003 -0.000175 -0.001652 -16.640100 -2.192510 6.469440 -0.000001 173.926000 20.578700 179.953000 -39.081100 -0.002282 -0.040193 -0.052597 0.156068 19.712500 -40.985400 0.000008 0.000006 -3.933420 3.181150 -63.352900 -11.754300 -0.000006 -0.000006 -0.004710 -0.058631 -18.958500
0.000000 0.000000 0.000000 0.000000 0.000000 -0.000000 -1.076050 91.932000 -1.436990 87.533200 -0.401779 4.045810 15.735700 0.000005 -0.000001 85.025800 85.039400 -85.117100 8.984550 -0.406207 -0.000000 2.117360 -0.855148 -0.166562 16.377300 -0.000001 -0.000001 2.269650 -2.493590 -1.001690 6.456720 -0.000001 -0.000000 -1.024320 -1.836950 3.256260 12.994200 -0.242716 4.980390 -89.430000 -1.724400 -71.705200 5.348090 -0.000007 -0.000001 -33.729400 63.699900 -33.939400 24.328600 0.000019 0.000005 5.111410 4.807110 -46.868200 22.291600 -0.000001 0.000005 14.061800 5.674930 -18.247100 12.994500 -0.242716 -4.980390 87.820400 5.960560 -69.871800 -5.348130 -0.000001 -0.000004 -64.679200 32.525700 -15.374700 -24.328900 0.000322 -0.000009 0.174702 0.488612 -19.785600 -22.291500 -0.000108 -0.000004 5.885720 5.534080 -7.975670 -2.192480 -6.469440 -0.000000 -167.799000 -16.007500 -2.456190 39.081100 -0.000007 -0.000012 -0.204246 0.503980 22.061400 40.985400 -0.000006 -0.000013 -6.747110 2.944660 -63.372500 11.754300 -0.000000 0.000003 -0.000184 -0.001726 -16.642800 -2.192510 6.469440 -0.000001 173.949000 20.603600 179.979000 -39.081100 -0.002282 -0.040193 -0.052148 0.154824 19.711500 -40.985400 0.000008 0.000006 -3.892670 3.185160 -63.354700 -11.754300 -0.000006 -0.000006 -0.005038 -0.061830 -19.088800
0.000000 0.000000 0.000000 0.000000 0.000000 -0.000000 -1.096960 91.936800 -1.478360 87.473700 -0.374733 4.005060 15.735700 0.000005 -0.000001 84.867300 85.015600 -85.002300 8.984550 -0.406207 -0.000000 2.162000 -0.884611 -0.253018 16.377300 -0.000001 -0.000001 2.244460 -2.432910 -1.051750 6.456720 -0.000001 -0.000000 -1.261630 -1.912020 3.005360 12.994200 -0.242716 4.980390 -89.293400 -2.095950 -71.365600 5.348090 -0.000007 -0.000001 -28.004800 64.613200 -36.810400 24.328600 0.000019 0.000005 5.821160 4.552880 -52.089700 22.291600 -0.000001 0.000005 14.315800 5.678720 -19.174100 12.994500 -0.242716 -4.980390 87.909400 5.660930 -69.691700 -5.348130 -0.000001 -0.000004 -64.079700 30.549100 -15.831400 -24.328900 0.000322 -0.000009 -0.031402 -0.082099 -20.257100 -22.291500 -0.000108 -0.000004 6.311600 5.534360 -7.988510 -2.192480 -6.469440 -0.000000 -167.751000 -15.973500 -2.558880 39.081100 -0.000007 -0.000012 -0.205336 0.506078 22.084700 40.985400 -0.000006 -0.000013 -6.762660 2.902470 -63.340900 11.754300 -0.000000 0.000003 -0.000188 -0.001757 -16.643900 -2.192510 6.469440 -0.000001 174.054000 20.656900 179.920000 -39.081100 -0.002282 -0.040193 -0.051844 0.154269 19.676700 -40.985400 0.000008 0.000006 -3.857830 3.171200 -63.312100 -11.754300 -0.000006 -0.000006 -0.004799 -0.059512 -18.994400
0.000000 0.000000 0.000000 0.000000 0.000000 -0.000000 -1.111480 91.953800 -1.520400 87.458300 -0.392469 4.028190 15.735700 0.000005 -0.000001 84.950900 84.967000 -85.157700 8.984550 -0.406207 -0.000000 2.259510 -0.875301 -0.395956 16.377300 -0.000001 -0.000001 2.241670 -2.351440 -1.213460 6.456720 -0.000001 -0.000000 -1.567920 -1.994750 2.943960 12.994200 -0.242716 4.980390 -89.126600 -2.548530 -71.075900 5.348090 -0.000007 -0.000001 -22.568600 65.182100 -39.233700 24.328600 0.000019 0.000005 7.093580 4.550570 -57.473500 22.291600 -0.000001 0.000005 14.212200 5.681340 -20.283300 12.994500 -0.242716 -4.980390 88.022200 5.297980 -69.494400 -5.348130 -0.000001 -0.000004 -63.201300 28.293300 -16.431300 -24.328900 0.000322 -0.000009 -0.311957 -0.815740 -20.858600 -22.291500 -0.000108 -0.000004 6.591620 5.535470 -8.038030 -2.192480 -6.469440 -0.000000 -167.726000 -15.910200 -2.496260 39.081100 -0.000007 -0.000012 -0.204863 0.508061 21.960900 40.985400 -0.000006 -0.000013 -6.786060 2.852910 -63.262200 11.754300 -0.000000 0.000003 -0.000190 -0.001772 -16.644500 -2.192510 6.469440 -0.000001 174.106000 20.676000 179.931000 -39.081100 -0.002282 -0.040193 -0.044962 0.135375 19.629800 -40.985400 0.000008 0.000006 -3.675740 3.187840 -63.275400 -11.754300 -0.000006 -0.000006 -0.004880 -0.060302 -19.026600
0.000000 0.000000 0.000000 0.000000 0.000000 -0.000000 -1.100280 91.956200 -1.565680 87.439600 -0.457355 3.970090 15.735700 0.000005 -0.000001 85.192600 84.932600 -85.480200 8.984550 -0.406207 -0.000000 2.331240 -0.835079 -0.557744 16.377300 -0.000001 -0.000001 2.154110 -2.276290 -1.320800 6.456720 -0.000001 -0.000000 -1.861220 -2.053530 2.825770 12.994200 -0.242716 4.980390 -88.930800 -3.071890 -70.798000 5.348090 -0.000007 -0.000001 -17.307200 65.650100 -41.453000 24.328600 0.000019 0.000005 9.139450 4.734730 -62.830200 22.291600 -0.000001 0.000005 14.445800 5.682070 -21.124800 12.994500 -0.242716 -4.980390 88.144000 4.898330 -69.218600 -5.348130 -0.000001 -0.000004 -61.890600 25.860900 -17.306500 -24.328900 0.000322 -0.000009 -0.526437 -1.328310 -21.581400 -22.291500 -0.000108 -0.000004 7.013580 5.534860 -8.008060 -2.192480 -6.469440 -0.000000 -167.749000 -15.970000 -2.599470 39.081100 -0.000007 -0.000012 -0.201335 0.498025 22.012200 40.985400 -0.000006 -0.000013 -6.763420 2.824800 -63.265500 11.754300 -0.000000 0.000003 -0.000174 -0.001648 -16.639900 -2.192510 6.469440 -0.000001 174.154000 20.676900 179.814000 -39.081100 -0.002282 -0.040193 -0.045366 0.136410 19.642600 -40.985400 0.000008 0.000006 -3.623390 3.218920 -63.239000 -11.754300 -0.000006 -0.000006 -0.004770 -0.059222 -18.982600
